Genre:Action | Adventure | Crime | Thriller
Language: English
IMDB:http://www.imdb.com/title/tt0985694/
Source:720p.DTS.x264-BECKS

General
Complete name :Machete.2010.BRRip.720p.H264.Feel-Free
Format : MPEG-4
Format profile : Base Media
Codec ID : isom
File size : 1.72 GiB
Duration : 1h 44mn
Overall bit rate : 2 351 Kbps
Video #1
Codec ID : avc1
Codec ID/Info : Advanced Video Coding
Duration : 1h 44mn
Bit rate mode : Variable
Bit rate : 2 029 Kbps
Width : 1 280 pixels
Height : 712 pixels
Display aspect ratio : 16:9
Frame rate mode : Constant
Frame rate : 23.976 fps
Resolution : 24 bits
Colorimetry : 4:2:0
Scan type : Progressive
Bits/(Pixel*Frame) : 0.093
Stream size : 1.49 GiB (86%)
Audio #2
ID : 2
Format : AAC
Format/Info : Advanced Audio Codec
Format version : Version 4
Format profile : LC
Format settings, SBR : No
Codec ID : 40
Duration : 1h 44mn
Bit rate mode : Variable
Bit rate : 320 Kbps
Channel(s) : 6 channels
Channel positions : Front: L C R, Rear: L R, LFE
Sampling rate : 48.0 KHz
Resolution : 16 bits
Stream size : 238 MiB (13%)

Plot
After being betrayed by the organization who hired him, an ex-Federale launches a brutal rampage of revenge against his former boss